<svg width="410px" height="410px" viewBox="0 0 410 410" version="1.1" xmlns="http://www.w3.org/2000/svg" xmlns:xlink="http://www.w3.org/1999/xlink">
	<defs>
		<linearGradient x1="100%" y1="0%" x2="0%" y2="100%" id="linearGradient--45en6kh_z-1">
			<stop stop-color="#32C5FF" offset="0%"></stop>
			<stop stop-color="#B620E0" offset="51.2583893%"></stop>
			<stop stop-color="#F7B500" offset="100%"></stop>
		</linearGradient>
		<linearGradient x1="58.8145873%" y1="7.4114724%" x2="37.4148942%" y2="103.76182%" id="linearGradient--45en6kh_z-2">
			<stop stop-color="#114A8B" offset="0%"></stop>
			<stop stop-color="#0669BC" offset="100%"></stop>
		</linearGradient>
		<linearGradient x1="59.6788751%" y1="52.3127289%" x2="52.6803644%" y2="54.8636556%" id="linearGradient--45en6kh_z-3">
			<stop stop-color="#000000" stop-opacity="0.3" offset="0%"></stop>
			<stop stop-color="#000000" stop-opacity="0.2" offset="7.1%"></stop>
			<stop stop-color="#000000" stop-opacity="0.1" offset="32.1%"></stop>
			<stop stop-color="#000000" stop-opacity="0.05" offset="62.3%"></stop>
			<stop stop-color="#000000" stop-opacity="0" offset="100%"></stop>
		</linearGradient>
		<linearGradient x1="37.2615192%" y1="4.60005789%" x2="62.490472%" y2="99.9794963%" id="linearGradient--45en6kh_z-4">
			<stop stop-color="#3CCBF4" offset="0%"></stop>
			<stop stop-color="#2892DF" offset="100%"></stop>
		</linearGradient>
	</defs>
	<g id="Page-1" stroke="none" stroke-width="1" fill="none" fill-rule="evenodd">
		<g id="WWW-Icon-White-on-Black" transform="translate(-0.000006, 0.000000)" fill-rule="nonzero">
			<path d="M307.514317,382.533587 C244.079823,419.155471 165.920189,419.155471 102.485695,382.533587 C39.0512015,345.911703 -0.0177021436,278.233542 0,205 C-0.0177021436,131.766458 39.0512015,64.0882973 102.485695,27.4664131 C165.920189,-9.15547104 244.079823,-9.15547104 307.514317,27.4664131 C370.948811,64.0882973 410.017714,131.766458 410.000012,205 C410.017714,278.233542 370.948811,345.911703 307.514317,382.533587 Z" id="path3794" fill="url(#linearGradient--45en6kh_z-1)"></path>
			<g id="Group" transform="translate(40.000006, 134.000000)">
				<path d="M49.7980678,0.0017126592 L94,0.0017126592 L48.1140553,137.16345 C47.1470356,140.053446 44.4608143,142 41.4374212,142 L7.03739222,142 C4.77090778,142 2.64305665,140.899094 1.32104532,139.041767 C-0.000966013801,137.18444 -0.355263461,134.798379 0.369246062,132.631754 L43.1197361,4.83826225 C44.0863705,1.94699293 46.7736019,0 49.7980678,0 L49.7980678,0.0017126592 Z" id="Path" fill="url(#linearGradient--45en6kh_z-2)"></path>
				<path d="M114.479617,92 L43.2982122,92 C41.9439341,91.9985141 40.7267045,92.8205475 40.2298487,94.0721641 C39.7329929,95.3237807 40.0577438,96.7499677 41.048473,97.6672622 L86.787999,140.080085 C88.1197031,141.314224 89.873167,142 91.6943269,142 L132,142 L114.479617,92 Z" id="Path" fill="#0078D4"></path>
				<path d="M50.1281284,0 C47.0467941,-0.0117966325 44.3160142,1.98620781 43.3889361,4.93085502 L0.41568928,132.515158 C-0.363089536,134.690396 -0.0351133134,137.109464 1.29458355,138.997655 C2.62428042,140.885846 4.7888397,142.006219 7.09506121,142 L42.6232353,142 C45.3171546,141.517655 47.5437292,139.620181 48.4514488,137.033205 L57.0211445,111.724949 L87.6320839,140.33525 C88.9148525,141.398481 90.5240182,141.986379 92.1886872,142 L132,142 L114.539288,92.0000258 L63.6389869,92.0120145 L94.791728,0 L50.1281284,0 Z" id="Path" fill="url(#linearGradient--45en6kh_z-3)"></path>
				<path d="M106.465606,4.82969896 C105.491103,1.94308705 102.782216,0 99.7336761,0 L50,0 C53.04837,0 55.7569811,1.94341663 56.7319301,4.82969896 L99.8930625,132.628329 C100.625054,134.79535 100.267695,137.182049 98.9330381,139.040055 C97.5983812,140.898061 95.4498488,142 93.1611323,142 L142.896522,142 C145.184936,142 147.332958,140.897281 148.667214,139.039359 C150.001471,137.181438 150.358634,134.795064 149.626739,132.628329 L106.465606,4.82969896 Z" id="Path" fill="url(#linearGradient--45en6kh_z-4)"></path>
			</g>
			<path d="M290.012461,124 C252.535121,124 220.620144,147.96797 210.000006,181 L221.857394,181 C223.089215,177.735198 224.562082,174.589265 226.266548,171.574219 L249.084546,171.574219 C248.089402,174.657452 247.271254,177.811151 246.593498,181 L258.15196,181 C258.959482,177.786435 259.922023,174.630662 261.066486,171.574219 L283.087348,171.574219 L283.087348,181 L294.247243,181 L294.247243,171.574219 L318.036749,171.574219 C319.316813,174.633353 320.392451,177.783712 321.300022,181 L332.858483,181 C332.081986,177.807786 331.178042,174.660199 330.06851,171.574219 L353.758374,171.574219 C355.46316,174.589828 356.935564,177.734549 358.167529,181 L370.000006,181 C359.379836,147.968001 327.489769,124 290.012461,124 Z M307.000006,137 C322.566895,140.650333 336.162573,149.210868 346.000006,161 L325.370471,161 C320.76319,151.909958 314.658627,143.70592 307.000006,137 Z M269.000006,138 C262.057014,144.198193 256.580718,151.703018 252.500006,160 L233.000006,160 C242.211462,149.589402 254.692094,141.83096 269.000006,138 Z M294.000006,142 C301.353534,146.982548 307.287131,153.553207 312.000006,161 L294.000006,161 L294.000006,142 Z M282.000006,142 L282.000006,161 L265.000006,161 C269.367504,153.506962 274.943109,146.927222 282.000006,142 Z M212.912249,192 C211.801399,192 210.873441,192.251777 210.121349,192.775718 C209.369258,193.299707 209.000006,193.952528 209.000006,194.702502 C209.000006,195.263734 209.160929,196.04143 209.5233,197.05468 L215.453961,214.170528 C215.634619,214.68233 215.842573,215.25928 216.076929,215.872104 C216.311269,216.484935 216.638753,217.029952 217.023841,217.49861 C217.408914,217.967268 217.932989,218.327137 218.593722,218.599629 C219.25444,218.872122 220.084174,219 221.085596,219 C222.327539,219 223.30295,218.773855 224.050927,218.324374 C224.798872,217.874894 225.332755,217.391519 225.620808,216.848007 C225.908829,216.304504 226.267092,215.467425 226.717232,214.320667 L232.024925,199.306766 L237.307698,214.395737 C237.747464,215.513732 238.09785,216.338744 238.379204,216.873031 C238.660495,217.407325 239.176173,217.906187 239.924166,218.349398 C240.672095,218.792608 241.667266,219 242.914416,219 C244.225508,219 245.253101,218.783816 245.979421,218.324374 C246.705661,217.864933 247.213971,217.34779 247.499464,216.772938 C247.784878,216.198086 248.119498,215.321706 248.521133,214.170528 L254.451794,197.05468 C254.819275,195.980221 255.000006,195.202525 255.000006,194.702502 C255.000006,193.939252 254.615077,193.293069 253.853744,192.775718 C253.092315,192.258415 252.178949,192 251.087763,192 C249.993396,192 249.149061,192.194612 248.57097,192.600556 C247.9928,193.006556 247.595758,193.447829 247.374871,193.926784 C247.153903,194.405788 246.926054,195.038798 246.702065,195.803522 L242.515716,210.367006 L237.830992,196.729379 C237.393235,195.584127 237.037683,194.761373 236.759486,194.227062 C236.481233,193.692799 235.94373,193.174495 235.189605,192.700649 C234.435424,192.226858 233.383519,192 232.024925,192 C230.689001,192 229.645348,192.219163 228.860244,192.675626 C228.075101,193.132136 227.514321,193.667304 227.190689,194.252085 C226.867016,194.836915 226.513537,195.6505 226.119183,196.729379 L221.459378,210.367006 L217.24811,195.703429 C216.918768,194.591359 216.49137,193.706652 215.977254,193.02595 C215.463123,192.345296 214.446366,192 212.912249,192 L212.912249,192 Z M269.912249,192 C268.801399,192 267.873441,192.251777 267.121349,192.775718 C266.369258,193.299707 266.000006,193.952528 266.000006,194.702502 C266.000006,195.263734 266.185848,196.04143 266.548218,197.05468 L272.478879,214.170528 C272.659538,214.68233 272.867492,215.25928 273.101848,215.872104 C273.336188,216.484935 273.638753,217.029952 274.023841,217.49861 C274.408914,217.967268 274.932989,218.327137 275.593722,218.599629 C276.25444,218.872122 277.084174,219 278.085596,219 C279.327539,219 280.327869,218.773855 281.075846,218.324374 C281.823791,217.874894 282.332755,217.391519 282.620808,216.848007 C282.908829,216.304504 283.267092,215.467425 283.717232,214.320667 L289.024925,199.306766 L294.307698,214.395737 C294.747464,215.513732 295.09785,216.338744 295.379204,216.873031 C295.660495,217.407325 296.176173,217.906187 296.924166,218.349398 C297.672095,218.792608 298.667266,219 299.914416,219 C301.225508,219 302.253101,218.783816 302.979421,218.324374 C303.705661,217.864933 304.213971,217.34779 304.499464,216.772938 C304.784878,216.198086 305.119498,215.321706 305.521133,214.170528 L311.451794,197.05468 C311.819275,195.980221 312.000006,195.202525 312.000006,194.702502 C312.000006,193.939252 311.615077,193.293069 310.853744,192.775718 C310.092315,192.258415 309.178949,192 308.087763,192 C306.993396,192 306.149061,192.194612 305.57097,192.600556 C304.9928,193.006556 304.595758,193.447829 304.374871,193.926784 C304.153903,194.405788 303.926054,195.038798 303.702065,195.803522 L299.515716,210.367006 L294.830992,196.729379 C294.393235,195.584127 294.037683,194.761373 293.759486,194.227062 C293.481233,193.692799 292.968649,193.174495 292.214524,192.700649 C291.460343,192.226858 290.408429,192 289.049844,192 C287.71392,192 286.645348,192.219163 285.860244,192.675626 C285.075101,193.132136 284.514321,193.667304 284.190689,194.252085 C283.867016,194.836915 283.513537,195.6505 283.119183,196.729379 L278.459378,210.367006 L274.24811,195.703429 C273.918768,194.591359 273.516288,193.706652 273.002173,193.02595 C272.488041,192.345296 271.446366,192 269.912249,192 L269.912249,192 Z M327.912249,192 C326.801399,192 325.873441,192.251777 325.121349,192.775718 C324.369258,193.299707 324.000006,193.952528 324.000006,194.702502 C324.000006,195.263734 324.185848,196.04143 324.548218,197.05468 L330.478879,214.170528 C330.659538,214.68233 330.867492,215.25928 331.101848,215.872104 C331.336188,216.484935 331.638753,217.029952 332.023841,217.49861 C332.408914,217.967268 332.932989,218.327137 333.593722,218.599629 C334.25444,218.872122 335.084174,219 336.085596,219 C337.327539,219 338.327869,218.773855 339.075846,218.324374 C339.823791,217.874894 340.332755,217.391519 340.620808,216.848007 C340.908829,216.304504 341.292011,215.467425 341.742151,214.320667 L347.024925,199.306766 L352.307698,214.395737 C352.747464,215.513732 353.09785,216.338744 353.379204,216.873031 C353.660495,217.407325 354.176173,217.906187 354.924166,218.349398 C355.672095,218.792608 356.667266,219 357.914416,219 C359.225508,219 360.253101,218.783816 360.979421,218.324374 C361.705661,217.864933 362.213971,217.34779 362.499464,216.772938 C362.784878,216.198086 363.119498,215.321706 363.521133,214.170528 L369.451794,197.05468 C369.819275,195.980221 370.000006,195.202525 370.000006,194.702502 C370.000006,193.939252 369.639996,193.293069 368.878663,192.775718 C368.117233,192.258415 367.178949,192 366.087763,192 C364.993396,192 364.149061,192.194612 363.57097,192.600556 C362.9928,193.006556 362.595758,193.447829 362.374871,193.926784 C362.153903,194.405788 361.926054,195.038798 361.702065,195.803522 L357.540634,210.367047 L352.830992,196.729419 C352.393235,195.584167 352.037683,194.761413 351.759486,194.227102 C351.481233,193.692839 350.968649,193.174536 350.214524,192.700689 C349.460343,192.226898 348.408429,192 347.049844,192 C345.71392,192 344.645348,192.219203 343.860244,192.675666 C343.075101,193.132176 342.514321,193.667344 342.190689,194.252125 C341.867016,194.836955 341.513537,195.65054 341.119183,196.729419 L336.459378,210.367047 L332.273029,195.703469 C331.943687,194.591399 331.516288,193.706692 331.002173,193.02599 C330.488041,192.345336 329.446366,192 327.912249,192 L327.912249,192 Z M209.000006,228 C219.146662,262.090321 251.44178,287 289.500006,287 C327.558759,287 359.853829,262.091056 370.000006,228 L358.207965,228 C357.083516,231.215097 355.739632,234.323554 354.169253,237.313161 L330.236147,237.313161 C331.255051,234.265068 332.096117,231.149245 332.80397,228 L321.410814,228 C320.615421,231.184432 319.662453,234.295701 318.493967,237.313161 L293.73816,237.313161 L293.73816,228 L282.569377,228 L282.569377,237.313161 L259.957578,237.313161 C258.932276,234.306879 258.050149,231.192342 257.314964,228 L245.847017,228 C246.489542,231.152896 247.273686,234.265212 248.165537,237.313161 L224.830759,237.313161 C223.26038,234.323554 221.891566,231.215097 220.767117,228 L209.000006,228 Z M232.000006,249 L251.745908,249 C255.775996,258.331673 261.119269,266.665694 268.000006,273 C253.513315,268.805428 241.027838,260.293594 232.000006,249 Z M265.000006,248 L283.000006,248 L283.000006,269 C275.726334,264.372602 269.642662,256.995583 265.000006,248 Z M294.000006,248 L313.000006,248 C308.176181,256.009443 301.903066,262.938643 294.000006,268 L294.000006,248 Z M325.952011,249 L347.000006,249 C336.928047,261.37307 322.585655,270.381853 306.000006,274 C314.510661,267.235228 321.123333,258.622237 325.952011,249 Z" id="path3592-4-4-3-8" fill="#FFFFFF"></path>
		</g>
	</g>
</svg>
