<?xml version="1.0" encoding="UTF-8"?>
<svg width="425px" height="425px" viewBox="0 0 425 425" version="1.1" xmlns="http://www.w3.org/2000/svg" xmlns:xlink="http://www.w3.org/1999/xlink">
    <title>TemplatedEmail</title>
    <defs>
        <linearGradient x1="100%" y1="0%" x2="0%" y2="100%" id="linearGradient-1">
            <stop stop-color="#32C5FF" offset="0%"></stop>
            <stop stop-color="#B620E0" offset="51.2583893%"></stop>
            <stop stop-color="#F7B500" offset="100%"></stop>
        </linearGradient>
    </defs>
    <g id="Page-1" stroke="none" stroke-width="1" fill="none" fill-rule="evenodd">
        <g id="TemplatedEmail">
            <g id="Group-2" transform="translate(7.499994, 7.500000)" fill-rule="nonzero">
                <g id="path3794" fill="url(#linearGradient-1)">
                    <path d="M307.514317,382.533587 C244.079823,419.155471 165.920189,419.155471 102.485695,382.533587 C39.0512015,345.911703 -0.0177021436,278.233542 0,205 C-0.0177021436,131.766458 39.0512015,64.0882973 102.485695,27.4664131 C165.920189,-9.15547104 244.079823,-9.15547104 307.514317,27.4664131 C370.948811,64.0882973 410.017714,131.766458 410.000012,205 C410.017714,278.233542 370.948811,345.911703 307.514317,382.533587 Z"></path>
                </g>
                <g id="envelope-solid" transform="translate(101.500006, 127.500000)" fill="#FFFFFF" fill-opacity="0.490548514">
                    <path d="M187.59375,0 C198.307617,0 207,8.67434896 207,19.375 C207,25.4700521 204.129492,31.2018229 199.2375,34.875 L111.2625,100.75 C106.653516,104.18099 100.346484,104.18099 95.7375,100.75 L7.7625,34.875 C2.87576367,31.2018229 0,25.4700521 0,19.375 C0,8.67434896 8.68833984,0 19.40625,0 L187.59375,0 Z M87.975,111.083333 C97.1929688,117.985677 109.807031,117.985677 119.025,111.083333 L207,45.2083333 L207,129.166667 C207,143.415365 195.39668,155 181.125,155 L25.875,155 C11.5831055,155 0,143.415365 0,129.166667 L0,45.2083333 L87.975,111.083333 Z" id="Shape"></path>
                </g>
                <g id="Group" transform="translate(138.500006, 144.500000)" fill="#423426">
                    <path d="M48.9483559,0 C53.5719131,-0.0196482236 58.3134037,1.29818605 61.9069927,4.26750638 C63.7484668,5.74816686 65.2358812,7.60583064 66.4991184,9.58374325 C68.7720621,5.93395904 72.0921186,2.83277786 76.1862748,1.33792493 C81.1753214,-0.522577339 86.8145597,-0.39407108 91.7950341,1.4295308 C96.1453186,3.00721608 99.9490575,5.75668233 103.398737,8.7804501 C106.097435,11.146978 108.594816,13.7364566 111.374042,16.0144752 C112.838597,17.1947716 114.412253,18.3007512 116.213464,18.9123171 C118.607198,19.7241257 121.438377,18.9582491 123.150228,17.1261317 C124.735574,15.4114247 124.637643,12.4475233 122.891243,10.88145 C121.780747,9.92952314 119.881865,10.1209923 119.096076,11.3897981 C118.408738,12.3961724 118.794229,13.6507857 119.332462,14.6254206 C117.902196,13.5880809 116.469592,12.1417403 116.475047,10.2554336 C116.178915,8.07469785 117.807382,6.15097463 119.757957,5.38793646 C123.564553,3.87579453 128.337735,5.17943635 130.740302,8.50898708 C133.050652,11.6158452 133.234565,15.6999187 132.83193,19.4010538 C132.345649,22.9166547 130.36624,26.1979511 127.431415,28.2328916 C123.311542,31.1539576 118.089227,32.0596945 113.120442,31.9969896 C108.344403,31.8682253 103.617199,30.7965657 99.1921022,29.0243147 C91.7921767,26.0691868 84.8668418,21.9848553 77.225075,19.6242624 C74.6902881,18.6467891 71.994447,18.1180555 69.2840589,17.9549713 C67.1261911,17.9407788 65.0805417,17.8406575 63.0434646,17.9779373 C60.5575135,18.2153384 58.0861093,18.721106 55.7586149,19.6268429 C47.9874852,22.0279488 40.958504,26.2149821 33.4175261,29.176045 C27.0501664,31.6367592 19.9954685,32.7801553 13.2371625,31.4138086 C9.45654266,30.6536089 5.69306734,28.9930913 3.14113597,26.0348669 C0.957291617,23.5197052 -0.0898210994,20.152996 0.0133056057,16.8546687 C-0.107485119,13.7421336 0.580112836,10.4352907 2.65173871,8.0114769 C4.57919502,5.71384691 7.6839063,4.54774293 10.6647097,4.80501349 C12.5835937,4.89352282 14.5287141,5.72520088 15.7140218,7.26005074 C16.6463183,8.47466714 16.7037264,10.1382813 16.2951161,11.5585593 C15.7974063,12.8361386 14.7702955,13.8337394 13.6540853,14.5996161 C14.2237499,13.6448507 14.5689776,12.3845604 13.8956668,11.3869596 C13.0670164,10.0580294 11.0270819,9.92384616 9.94827781,11.0153752 C8.6190603,12.3732064 8.33981293,14.5911006 9.23184594,16.2544567 C10.1984315,17.9980647 12.1983622,18.992569 14.1343908,19.1953921 C17.0635009,19.4469857 19.6040026,17.6435113 21.7532982,15.8944844 C26.2012543,12.0901314 30.2060514,7.73743343 35.1405473,4.51909996 C39.2089867,1.80963064 44.0021705,-0.0224867153 48.9480961,0.000479262833 L48.9483559,0 Z" id="Path"></path>
                </g>
            </g>
            <rect id="Rectangle" x="0" y="0" width="425" height="425"></rect>
        </g>
    </g>
</svg>