<svg width="605px" height="605px" viewBox="0 0 605 605" version="1.1" xmlns="http://www.w3.org/2000/svg" xmlns:xlink="http://www.w3.org/1999/xlink">
	<defs>
		<filter x="-26.4%" y="-26.4%" width="152.9%" height="152.9%" filterUnits="objectBoundingBox" id="filter-8o3ry8w9wv-1">
			<feOffset dx="15" dy="15" in="SourceAlpha" result="shadowOffsetOuter1"></feOffset>
			<feGaussianBlur stdDeviation="22.5" in="shadowOffsetOuter1" result="shadowBlurOuter1"></feGaussianBlur>
			<feColorMatrix values="0 0 0 0 0   0 0 0 0 0   0 0 0 0 0  0 0 0 0.5 0" type="matrix" in="shadowBlurOuter1" result="shadowMatrixOuter1"></feColorMatrix>
			<feMerge>
				<feMergeNode in="shadowMatrixOuter1"></feMergeNode>
				<feMergeNode in="SourceGraphic"></feMergeNode>
			</feMerge>
		</filter>
		<linearGradient x1="100%" y1="0%" x2="0%" y2="100%" id="linearGradient-8o3ry8w9wv-2">
			<stop stop-color="#32C5FF" offset="0%"></stop>
			<stop stop-color="#B620E0" offset="51.2583893%"></stop>
			<stop stop-color="#F7B500" offset="100%"></stop>
		</linearGradient>
		<filter x="-43.2%" y="-45.7%" width="186.5%" height="191.3%" filterUnits="objectBoundingBox" id="filter-8o3ry8w9wv-3">
			<feOffset dx="15" dy="15" in="SourceAlpha" result="shadowOffsetOuter1"></feOffset>
			<feGaussianBlur stdDeviation="20" in="shadowOffsetOuter1" result="shadowBlurOuter1"></feGaussianBlur>
			<feColorMatrix values="0 0 0 0 0   0 0 0 0 0   0 0 0 0 0  0 0 0 0.5 0" type="matrix" in="shadowBlurOuter1" result="shadowMatrixOuter1"></feColorMatrix>
			<feMerge>
				<feMergeNode in="shadowMatrixOuter1"></feMergeNode>
				<feMergeNode in="SourceGraphic"></feMergeNode>
			</feMerge>
		</filter>
		<linearGradient x1="58.8172078%" y1="7.4114724%" x2="37.4111527%" y2="103.76182%" id="linearGradient-8o3ry8w9wv-4">
			<stop stop-color="#114A8B" offset="0%"></stop>
			<stop stop-color="#0669BC" offset="100%"></stop>
		</linearGradient>
		<linearGradient x1="59.6817526%" y1="52.3127289%" x2="52.6811613%" y2="54.8636556%" id="linearGradient-8o3ry8w9wv-5">
			<stop stop-color="#000000" stop-opacity="0.3" offset="0%"></stop>
			<stop stop-color="#000000" stop-opacity="0.2" offset="7.1%"></stop>
			<stop stop-color="#000000" stop-opacity="0.1" offset="32.1%"></stop>
			<stop stop-color="#000000" stop-opacity="0.05" offset="62.3%"></stop>
			<stop stop-color="#000000" stop-opacity="0" offset="100%"></stop>
		</linearGradient>
		<linearGradient x1="37.2577321%" y1="4.60005789%" x2="62.4941853%" y2="99.9794963%" id="linearGradient-8o3ry8w9wv-6">
			<stop stop-color="#3CCBF4" offset="0%"></stop>
			<stop stop-color="#2892DF" offset="100%"></stop>
		</linearGradient>
	</defs>
	<g id="Symbols" stroke="none" stroke-width="1" fill="none" fill-rule="evenodd">
		<g id="AzureLogo" transform="translate(47.000000, 33.000000)">
			<g id="azure" transform="translate(31.000000, 44.000000)">
				<g id="Group" transform="translate(7.000000, 8.000000)" fill="url(#linearGradient-8o3ry8w9wv-2)" fill-rule="nonzero">
					<g id="TyeDyeBackground" filter="url(#filter-8o3ry8w9wv-1)">
						<path d="M326.26518,405.858806 C258.962731,444.713731 176.037269,444.713731 108.73482,405.858806 C41.4323711,367.00388 -0.0187815421,295.199001 0,217.5 C-0.0187815421,139.800999 41.4323711,67.9961203 108.73482,29.1411944 C176.037269,-9.71373147 258.962731,-9.71373147 326.26518,29.1411944 C393.567629,67.9961203 435.018782,139.800999 435,217.5 C435.018782,295.199001 393.567629,367.00388 326.26518,405.858806 Z" id="path3794"></path>
					</g>
				</g>
				<g id="Group" transform="translate(103.000000, 96.251185)" fill-rule="nonzero">
					<g id="AzureLogo" filter="url(#filter-8o3ry8w9wv-3)">
						<path d="M81.0215739,0.00278608645 L152.938222,0.00278608645 L78.2816816,223.132092 C76.7083383,227.833423 72.3378499,231 67.4187821,231 L11.4498538,231 C7.76227822,231 4.30025941,229.20909 2.14934385,226.187664 C-0.00157170674,223.166237 -0.578014491,219.284687 0.600764215,215.760107 L70.1559124,7.87069423 C71.728629,3.16729132 76.1007607,0 81.0215739,0 L81.0215739,0.00278608645 Z" id="Path" fill="url(#linearGradient-8o3ry8w9wv-4)"></path>
						<path d="M186.258607,149.661972 L70.4462935,149.661972 C68.2428798,149.659555 66.2624444,150.996806 65.4540588,153.032887 C64.6456732,155.068967 65.1740437,157.389032 66.7859625,158.88125 L141.204279,227.876758 C143.370965,229.884407 146.223855,231 149.186886,231 L214.764312,231 L186.258607,149.661972 Z" id="Path" fill="#0078D4"></path>
						<path d="M81.5585833,0 C76.545245,-0.0191902965 72.1022599,3.23108454 70.5939015,8.02132049 L0.676327441,215.570433 C-0.590747533,219.109024 -0.0571294438,223.044268 2.1062905,226.115903 C4.26971044,229.187538 7.7914535,231.010116 11.5436813,231 L69.3481045,231 C73.7311176,230.21534 77.3537597,227.128605 78.8306216,222.920214 L92.7735368,181.749741 L142.577608,228.291851 C144.664675,230.021473 147.282791,230.977842 149.991212,231 L214.764312,231 L186.355692,149.662014 L103.540782,149.681517 L154.226365,0 L81.5585833,0 Z" id="Path" fill="url(#linearGradient-8o3ry8w9wv-5)"></path>
						<path d="M173.219793,7.8567638 C171.634274,3.16093739 167.226908,0 162.266927,0 L81.3501181,0 C86.3098232,0 90.7167399,3.16147353 92.3029843,7.8567638 L162.526249,215.754535 C163.717201,219.279759 163.135777,223.162347 160.964287,226.184877 C158.792797,229.207408 155.297129,231 151.573382,231 L232.492979,231 C236.216234,231 239.71107,229.206139 241.881908,226.183746 C244.052747,223.161353 244.633852,219.279294 243.443057,215.754535 L173.219793,7.8567638 Z" id="Path" fill="url(#linearGradient-8o3ry8w9wv-6)"></path>
					</g>
				</g>
				<rect id="Rectangle" x="0" y="0" width="450" height="450"></rect>
			</g>
		</g>
	</g>
</svg>
