<svg width="410px" height="410px" viewBox="0 0 410 410" version="1.1" xmlns="http://www.w3.org/2000/svg" xmlns:xlink="http://www.w3.org/1999/xlink">
	<defs>
		<linearGradient x1="100%" y1="0%" x2="0%" y2="100%" id="linearGradient-6qr6p07-uy-1">
			<stop stop-color="#32C5FF" offset="0%"></stop>
			<stop stop-color="#B620E0" offset="51.2583893%"></stop>
			<stop stop-color="#F7B500" offset="100%"></stop>
		</linearGradient>
	</defs>
	<g id="Page-1" stroke="none" stroke-width="1" fill="none" fill-rule="evenodd">
		<g id="WWW-Icon-White-on-Black" transform="translate(-0.000006, 0.000000)" fill-rule="nonzero">
			<path d="M307.514317,382.533587 C244.079823,419.155471 165.920189,419.155471 102.485695,382.533587 C39.0512015,345.911703 -0.0177021436,278.233542 0,205 C-0.0177021436,131.766458 39.0512015,64.0882973 102.485695,27.4664131 C165.920189,-9.15547104 244.079823,-9.15547104 307.514317,27.4664131 C370.948811,64.0882973 410.017714,131.766458 410.000012,205 C410.017714,278.233542 370.948811,345.911703 307.514317,382.533587 Z" id="path3794" fill="url(#linearGradient-6qr6p07-uy-1)"></path>
			<path d="M205.634133,59 C138.370056,59 81.0892687,102.317792 62.0283167,162.017244 L83.3098761,162.017244 C85.5207404,156.116702 88.164232,150.430995 91.2233971,144.98184 L132.176986,144.98184 C130.390909,150.554229 128.922503,156.253973 127.70607,162.017244 L148.45112,162.017244 C149.900455,156.209303 151.628017,150.505811 153.682091,144.98184 L193.204987,144.98184 L193.204987,162.017244 L213.23469,162.017244 L213.23469,144.98184 L255.931937,144.98184 C258.229387,150.510676 260.159935,156.204382 261.788836,162.017244 L282.533886,162.017244 C281.140234,156.247892 279.517842,150.559194 277.52646,144.98184 L320.04487,144.98184 C323.104607,150.432011 325.747269,156.115529 327.958391,162.017244 L349.195241,162.017244 C330.134232,102.31785 272.898154,59 205.634133,59 Z M235.857525,82.5634061 C263.893128,89.0103969 288.378625,104.129479 306.095612,124.95071 L268.942302,124.95071 C260.644697,108.896445 249.650522,94.4069838 235.857525,82.5634061 Z M169.553843,84.0389135 C157.137229,95.5652411 147.343606,109.521416 140.045798,124.95071 L105.172655,124.95071 C121.646112,105.590879 143.966054,91.163071 169.553843,84.0389135 Z M213.23469,90.4774912 C226.440288,99.5177265 237.095947,111.439397 245.559412,124.95071 L213.23469,124.95071 L213.23469,90.4774912 Z M193.204987,90.6115567 L193.204987,124.950638 L163.026306,124.950638 C170.77956,111.40832 180.677467,99.5166248 193.204987,90.6115567 Z M68.0193439,181.377618 C66.0262597,181.377618 64.3613192,181.827503 63.0119181,182.763701 C61.6625171,183.699984 61.000006,184.866469 61.000006,186.206551 C61.000006,187.209381 61.2887342,188.598998 61.9388983,190.409512 L72.579678,220.992756 C72.9038159,221.907263 73.2769263,222.93818 73.697407,224.033196 C74.1178591,225.128226 74.7054304,226.102082 75.396355,226.939498 C76.087251,227.776914 77.0275454,228.419942 78.213032,228.906841 C79.39849,229.393741 80.8871977,229.622239 82.6839478,229.622239 C84.912238,229.622239 86.662319,229.218154 88.0043377,228.415006 C89.3462992,227.611857 90.3041911,226.748144 90.8210147,225.776977 C91.337781,224.805825 91.9805771,223.3101 92.7882177,221.26103 L102.311268,194.433623 L111.78961,221.395167 C112.578637,223.392843 113.207298,224.867006 113.712104,225.821689 C114.216795,226.776387 115.142024,227.667773 116.484072,228.459718 C117.826004,229.251663 119.611538,229.622239 121.849171,229.622239 C124.20153,229.622239 126.045236,229.235953 127.348397,228.415006 C128.651415,227.594058 129.563425,226.670008 130.075656,225.64284 C130.587744,224.615672 131.18812,223.049724 131.908731,220.992756 L142.549511,190.409512 C143.208846,188.489628 143.533112,187.100011 143.533112,186.206551 C143.533112,184.842746 142.842474,183.688123 141.476491,182.763701 C140.110337,181.839364 138.471578,181.377618 136.513775,181.377618 C134.550263,181.377618 133.035359,181.725358 131.99815,182.450714 C130.960797,183.17617 130.248426,183.964653 129.85211,184.820469 C129.455651,185.67637 129.046844,186.807457 128.644963,188.173895 L121.133824,214.19648 L112.728502,189.828251 C111.94308,187.781871 111.305149,186.311743 110.806008,185.357017 C110.306768,184.402376 109.342381,183.476251 107.989332,182.629564 C106.636182,181.782977 104.748855,181.377618 102.311268,181.377618 C99.9143568,181.377618 98.0418371,181.769227 96.6332053,182.584851 C95.224502,183.400562 94.2183527,184.35682 93.6376917,185.401729 C93.056959,186.446725 92.4227471,187.90047 91.7151978,189.828251 L83.3545852,214.19648 L75.7987375,187.995045 C75.2078326,186.007957 74.4409954,184.427129 73.5185704,183.210824 C72.5961167,181.994606 70.7718543,181.377618 68.0193439,181.377618 L68.0193439,181.377618 Z M170.984536,181.377618 C168.991452,181.377618 167.326511,181.827503 165.97711,182.763701 C164.627709,183.699984 163.965198,184.866469 163.965198,186.206551 C163.965198,187.209381 164.298635,188.598998 164.948799,190.409512 L175.589579,220.992756 C175.913717,221.907263 176.286827,222.93818 176.707308,224.033196 C177.12776,225.128226 177.670622,226.102082 178.361547,226.939498 C179.052443,227.776914 179.992737,228.419942 181.178224,228.906841 C182.363682,229.393741 183.852389,229.622239 185.64914,229.622239 C187.87743,229.622239 189.67222,229.218154 191.014239,228.415006 C192.3562,227.611857 193.269383,226.748144 193.786207,225.776977 C194.302973,224.805825 194.945769,223.3101 195.753409,221.26103 L205.27646,194.433623 L214.754802,221.395167 C215.543829,223.392843 216.17249,224.867006 216.677296,225.821689 C217.181987,226.776387 218.107216,227.667773 219.449263,228.459718 C220.791196,229.251663 222.57673,229.622239 224.814362,229.622239 C227.166722,229.622239 229.010428,229.235953 230.313589,228.415006 C231.616607,227.594058 232.528617,226.670008 233.040848,225.64284 C233.552936,224.615672 234.153312,223.049724 234.873923,220.992756 L245.514703,190.409512 C246.174038,188.489628 246.498304,187.100011 246.498304,186.206551 C246.498304,184.842746 245.807666,183.688123 244.441683,182.763701 C243.075528,181.839364 241.43677,181.377618 239.478966,181.377618 C237.515455,181.377618 236.000551,181.725358 234.963341,182.450714 C233.925989,183.17617 233.213618,183.964653 232.817302,184.820469 C232.420842,185.67637 232.012036,186.807457 231.610155,188.173895 L224.099016,214.19648 L215.693694,189.828251 C214.908272,187.781871 214.270341,186.311743 213.7712,185.357017 C213.27196,184.402376 212.352282,183.476251 210.999233,182.629564 C209.646083,181.782977 207.758741,181.377618 205.321169,181.377618 C202.924258,181.377618 201.007029,181.769227 199.598397,182.584851 C198.189694,183.400562 197.183545,184.35682 196.602883,185.401729 C196.022151,186.446725 195.387939,187.90047 194.68039,189.828251 L186.319777,214.19648 L178.763929,187.995045 C178.173024,186.007957 177.450896,184.427129 176.528471,183.210824 C175.606018,181.994606 173.737046,181.377618 170.984536,181.377618 L170.984536,181.377618 Z M273.949728,181.377618 C271.956643,181.377618 270.291703,181.827503 268.942302,182.763701 C267.592901,183.699984 266.93039,184.866469 266.93039,186.206551 C266.93039,187.209381 267.263827,188.598998 267.913991,190.409512 L278.554771,220.992756 C278.878909,221.907263 279.252019,222.93818 279.6725,224.033196 C280.092952,225.128226 280.635814,226.102082 281.326739,226.939498 C282.017635,227.776914 282.957929,228.419942 284.143416,228.906841 C285.328874,229.393741 286.817581,229.622239 288.614332,229.622239 C290.842622,229.622239 292.637412,229.218154 293.979431,228.415006 C295.321392,227.611857 296.234575,226.748144 296.751398,225.776977 C297.268165,224.805825 297.95567,223.3101 298.76331,221.26103 L308.241652,194.433623 L317.719994,221.395167 C318.509021,223.392843 319.137682,224.867006 319.642487,225.821689 C320.147179,226.776387 321.072408,227.667773 322.414455,228.459718 C323.756388,229.251663 325.541922,229.622239 327.779554,229.622239 C330.131914,229.622239 331.97562,229.235953 333.278781,228.415006 C334.581799,227.594058 335.493808,226.670008 336.006039,225.64284 C336.518127,224.615672 337.118503,223.049724 337.839115,220.992756 L348.479895,190.409512 C349.13923,188.489628 349.463496,187.100011 349.463496,186.206551 C349.463496,184.842746 348.817567,183.688123 347.451584,182.763701 C346.085429,181.839364 344.401962,181.377618 342.444158,181.377618 C340.480646,181.377618 338.965743,181.725358 337.928533,182.450714 C336.891181,183.17617 336.17881,183.964653 335.782494,184.820469 C335.386034,185.67637 334.977228,186.807457 334.575346,188.173895 L327.108917,214.196551 L318.658886,189.828323 C317.873464,187.781943 317.235532,186.311815 316.736392,185.357088 C316.237152,184.402448 315.317474,183.476323 313.964424,182.629635 C312.611275,181.783048 310.723933,181.377618 308.286361,181.377618 C305.88945,181.377618 303.972221,181.769298 302.563589,182.584923 C301.154886,183.400634 300.148736,184.356891 299.568075,185.401801 C298.987343,186.446796 298.353131,187.900541 297.645582,189.828323 L289.284969,214.196551 L281.77383,187.995117 C281.182925,186.008029 280.416088,184.4272 279.493663,183.210896 C278.57121,181.994677 276.702238,181.377618 273.949728,181.377618 L273.949728,181.377618 Z M61.268261,246.344728 C79.4649171,307.39256 137.381848,352 205.634133,352 C273.887364,352 331.804208,307.393877 350.000006,246.344728 L328.852574,246.344728 C326.836027,252.102218 324.425953,257.668741 321.60969,263.022432 L278.688898,263.022432 C280.516165,257.564007 282.024502,251.984292 283.293942,246.344728 L262.861856,246.344728 C261.435427,252.047304 259.726407,257.618863 257.630885,263.022432 L213.23469,263.022432 L213.23469,246.344728 L193.204987,246.344728 L193.204987,263.022432 L152.653781,263.022432 C150.81504,257.63888 149.233065,252.061469 147.91461,246.344728 L127.348397,246.344728 C128.500677,251.990831 129.906934,257.564264 131.506349,263.022432 L89.6585766,263.022432 C86.8423145,257.668741 84.3875313,252.102218 82.3709837,246.344728 L61.268261,246.344728 Z M102.803069,283.053563 L138.704523,283.053563 C146.031918,300.003978 155.746911,315.142219 168.257277,326.6481 C141.917974,319.028916 119.217225,303.567688 102.803069,283.053563 Z M161.014393,283.053563 L193.204987,283.053563 L193.204987,320.477796 C180.196997,312.23128 169.317163,299.084649 161.014393,283.053563 Z M213.23469,283.053563 L247.660742,283.053563 C238.920467,297.6649 227.554226,310.305588 213.23469,319.538837 L213.23469,283.053563 Z M270.685959,283.053563 L308.465198,283.053563 C290.386946,305.647434 264.643656,322.097943 234.873923,328.704868 C250.149776,316.352042 262.018921,300.62427 270.685959,283.053563 Z" id="path3592-4-4-3-8" fill="#FFFFFF"></path>
		</g>
	</g>
</svg>
