<svg width="1191px" height="1191px" viewBox="0 0 1191 1191" version="1.1" xmlns="http://www.w3.org/2000/svg" xmlns:xlink="http://www.w3.org/1999/xlink">
	<defs>
		<linearGradient x1="100%" y1="0%" x2="0%" y2="100%" id="linearGradient-08hosjo4zz-1">
			<stop stop-color="#32C5FF" offset="0%"></stop>
			<stop stop-color="#B620E0" offset="51.2583893%"></stop>
			<stop stop-color="#F7B500" offset="100%"></stop>
		</linearGradient>
		<linearGradient x1="17.3720266%" y1="-6.51027682%" x2="82.6280028%" y2="106.510375%" id="linearGradient-08hosjo4zz-2">
			<stop stop-color="#058F92" offset="0%"></stop>
			<stop stop-color="#038489" offset="50%"></stop>
			<stop stop-color="#026D71" offset="100%"></stop>
		</linearGradient>
	</defs>
	<g id="Page-1" stroke="none" stroke-width="1" fill="none" fill-rule="evenodd">
		<g id="sharepoint" transform="translate(-0.000006, 0.000000)" fill-rule="nonzero">
			<path d="M893.291588,1111.21342 C709.022119,1217.59553 481.977916,1217.59553 297.708447,1111.21342 C113.438978,1004.83131 -0.0514225684,808.234507 0,595.5 C-0.0514225685,382.765493 113.438978,186.168688 297.708447,79.7865805 C481.977916,-26.5955268 709.022119,-26.5955268 893.291588,79.7865805 C1077.56106,186.168688 1191.05146,382.765493 1191.00003,595.5 C1191.05146,808.234507 1077.56106,1004.83131 893.291588,1111.21342 Z" id="path3794" fill="url(#linearGradient-08hosjo4zz-1)"></path>
			<g id="Group-2" transform="translate(192.000006, 201.000000)">
				<circle id="Oval" fill="#036C70" cx="412.5" cy="225.5" r="225.5"></circle>
				<circle id="Oval" fill="#1A9BA1" cx="600.5" cy="431.5" r="206.5"></circle>
				<circle id="Oval" fill="#37C6D0" cx="442" cy="629" r="160"></circle>
				<path d="M451,203.33081 L451,603.66919 C450.906759,617.580072 442.466417,630.077069 429.586991,635.373464 C425.486006,637.105998 421.078948,638 416.626485,638 L282.137626,638 C281.949927,634.810664 281.949927,631.809198 281.949927,628.619862 C281.887497,625.488426 282.012764,622.35618 282.325729,619.239725 C285.763486,559.27276 322.75221,506.363067 377.933072,482.479285 L377.933072,447.585675 C255.125694,428.148825 171.346587,312.961042 190.807615,190.306237 C190.942611,189.456774 191.082068,188.607715 191.226794,187.75987 C192.161637,181.433025 193.479173,175.168128 195.171296,169 L416.626891,169 C435.580363,169.072071 450.92784,184.40048 451,203.33081 Z" id="Path" fill="#000000" opacity="0.1"></path>
				<path d="M396.674281,189 L190.22782,189 C169.372826,311.433734 251.759897,427.58516 374.244408,448.43144 C377.953151,449.062667 381.677286,449.600769 385.413168,450.04534 C327.232974,477.622548 284.836406,555.945706 281.232979,620.479854 C280.920677,623.59631 280.795108,626.728556 280.857487,629.859992 C280.857487,633.049328 280.857487,636.050794 281.045031,639.24013 C281.383662,645.545921 282.199456,651.817296 283.484716,658 L396.654838,658 C410.571535,657.906875 423.073757,649.477019 428.372366,636.613594 C430.105624,632.518109 431,628.116121 431,623.66919 L431,223.33081 C430.928709,204.407768 415.605234,189.082598 396.674281,189 Z" id="Path" fill="#000000" opacity="0.2"></path>
				<path d="M396.657343,188 L190.225936,188 C169.376918,310.592562 251.770537,426.889169 374.257862,447.756506 C376.76339,448.183371 379.275803,448.567671 381.794291,448.909406 C325.494854,478.510653 284.771729,556.740464 281.243496,620 L396.657343,620 C415.564638,619.856901 430.857024,604.551377 431,585.627837 L431,222.372163 C430.927904,203.419031 415.594206,188.072158 396.657343,188 Z" id="Path" fill="#000000" opacity="0.2"></path>
				<path d="M378.691622,188 L191.216491,188 C171.549392,303.728669 243.930355,415.176527 357.507187,444.044442 C314.50144,493.271752 288.124074,554.855853 282.14213,620 L378.692026,620 C397.609764,619.927842 412.927977,604.580969 413,585.627837 L413,222.372163 C412.98948,203.393492 397.635256,188.01054 378.691622,188 Z" id="Path" fill="#000000" opacity="0.2"></path>
				<path d="M34.4104203,187 L378.58958,187 C397.593933,187 413,202.406067 413,221.41042 L413,565.58958 C413,584.593933 397.593933,600 378.58958,600 L34.4104203,600 C15.4060665,600 0,584.593933 0,565.58958 L0,221.41042 C0,202.406067 15.4060665,187 34.4104203,187 Z" id="Path" fill="url(#linearGradient-08hosjo4zz-2)"></path>
				<path d="M153.616794,390.281365 C145.539145,384.946583 138.791875,377.844721 133.89082,369.517662 C129.141959,360.81278 126.775037,351.018069 127.02707,341.115063 C126.604174,327.70699 131.148486,314.612491 139.795138,304.324792 C148.881327,294.024567 160.625838,286.396985 173.755925,282.269217 C188.720052,277.365195 204.393605,274.948743 220.1463,275.117248 C240.862145,274.363622 261.549174,277.247605 281.260538,283.63625 L281.260538,326.698789 C272.695867,321.532917 263.367386,317.741755 253.618037,315.465118 C243.039534,312.882182 232.185054,311.587077 221.293235,311.60809 C209.807656,311.188241 198.395536,313.593378 188.06582,318.610546 C180.090851,322.035199 174.919499,329.847045 174.90286,338.494143 C174.870391,343.739621 176.89437,348.790731 180.544186,352.573811 C184.855134,357.03374 189.95465,360.664075 195.58786,363.283379 C201.85582,366.391226 211.258167,370.523035 223.794493,375.677997 C225.174792,376.112392 226.520188,376.650639 227.818504,377.288291 C240.156776,382.089271 252.05957,387.933608 263.396607,394.756649 C271.981976,400.02718 279.187452,407.252693 284.420087,415.83837 C289.784623,425.57085 292.38491,436.57419 291.94172,447.667238 C292.554149,461.432929 288.324372,474.980009 279.982108,485.974055 C271.667036,496.081126 260.549969,503.5301 248.014454,507.392785 C233.270299,511.994145 217.882058,514.218655 202.432534,513.983071 C188.571104,514.045705 174.729967,512.918297 161.06294,510.61297 C149.522977,508.732744 138.261428,505.437803 127.53479,500.802096 L127.53479,455.399478 C137.788206,462.690454 149.243346,468.139996 161.38275,471.501208 C173.481164,475.254789 186.05767,477.259878 198.728333,477.455053 C210.455394,478.194536 222.161755,475.721108 232.576294,470.303084 C239.871869,466.204007 244.309036,458.439843 244.122345,450.101065 C244.171047,444.298753 241.865814,438.722731 237.728976,434.63618 C232.584411,429.607698 226.628144,425.475081 220.109368,422.410067 C212.587734,418.665375 201.511658,413.729026 186.881953,407.60021 C175.243368,402.941469 164.099922,397.139965 153.616794,390.281365 Z" id="Path" fill="#FFFFFF"></path>
			</g>
		</g>
	</g>
</svg>
